<svg width="48" height="48" viewBox="0 0 48 48" fill="none" xmlns="http://www.w3.org/2000/svg">
<path fill-rule="evenodd" clip-rule="evenodd" d="M26.3084 0.410109L26.3619 0.439926L44.1381 10.6204C44.65 10.9137 45.1156 11.4201 45.4531 12C45.7781 12.5584 45.9843 13.1846 45.9991 13.754L46 13.8195V34.1805C46 34.7454 45.8056 35.372 45.4899 35.9353L45.4529 36C45.1276 36.5592 44.6832 37.0501 44.1928 37.3474L44.1381 37.3796L26.3619 47.5601C25.3556 48.1365 23.7197 48.1465 22.6916 47.5899L22.6381 47.5601L4.86193 37.3796C4.36829 37.0969 3.91776 36.6158 3.58369 36.062L3.54706 36.0002L3.51008 35.9353C3.20643 35.3937 3.01512 34.7935 3.00086 34.246L3 34.1805V13.8195C3 12.6645 3.81222 11.2511 4.8148 10.6481L4.86193 10.6204L22.6381 0.439926C23.6268 -0.126415 25.2231 -0.145944 26.2537 0.381339L26.3084 0.410109ZM33.9406 29.4067L33.7962 29.3239L30.7098 27.5525L30.7081 27.5556C29.428 29.7477 27.0496 31.1091 24.5 31.1091C20.5482 31.1091 17.3333 27.92 17.3333 24.0001C17.3333 20.08 20.5482 16.891 24.5 16.891C27.025 16.891 29.3824 18.2266 30.6707 20.3817L30.7094 20.4472L36.9125 16.8865C34.3561 12.5043 29.5999 9.78194 24.5 9.78194C16.5966 9.78194 10.1667 16.1602 10.1667 24.0001C10.1667 31.84 16.5966 38.2182 24.5 38.2182C29.5491 38.2182 34.2614 35.5499 36.8356 31.244L36.9129 31.113L33.9406 29.4067ZM37.2406 21.6304H35.6482V23.2101H34.0556V24.7899H35.6482V26.3698H37.2406V24.7899H38.8333V23.2101H37.2406V21.6304ZM41.6205 21.6304H43.2129V23.2101H44.8056V24.7899H43.2129V26.3698H41.6205V24.7899H40.0278V23.2101H41.6205V21.6304Z" fill="#191E30"/>
</svg>
