<svg width="48" height="48" viewBox="0 0 48 48" fill="none" xmlns="http://www.w3.org/2000/svg">
<path fill-rule="evenodd" clip-rule="evenodd" d="M28.7744 3V6.553H31.6374V5.38H29.9584V3H28.7744ZM26.9454 3L26.1834 4.251L25.4214 3H24.1804V6.553H25.3434V4.792L26.1734 6.069L27.0024 4.792V6.553H28.1864V3H26.9454ZM20.3794 3V4.184H21.4254V6.553H22.6094V4.184H23.6594V3H20.3794ZM18.6744 3V4.174H17.5834V3H16.3984V6.553H17.5934V5.369H18.6744V6.553H19.8594V3H18.6744Z" fill="black"/>
<path fill-rule="evenodd" clip-rule="evenodd" d="M29.6342 14.4176H20.6942L20.9102 16.8126H29.4232L28.7792 23.9906L24.0002 25.3166V25.3296L19.2012 23.9906L18.8712 20.3196H21.2192L21.3842 22.1886L23.9952 22.8876L24.0002 22.8866L26.6012 22.1886L26.8742 19.1506H23.9902V19.1446H18.7682L18.1292 12.0796H29.8502L29.6342 14.4176ZM14.6582 8.18164L16.3582 27.2556L23.9852 29.3676L31.6422 27.2456L33.3422 8.18164H14.6582Z" fill="black"/>
<path fill-rule="evenodd" clip-rule="evenodd" d="M0 23.8535L1.7 42.9205L9.329 45.0385L16.979 42.9175L18.24 28.7815L15.453 28.0085L15.083 23.8535H0ZM9.34 27.7505H15.19L14.768 32.4835L14.711 33.1125L14.161 39.2685L14.126 39.6635L9.34 40.9905L9.332 40.9935H9.329L4.54 39.6635L4.211 35.9915H6.559L6.725 37.8575L9.33 38.5605H9.332L9.34 38.5575L11.94 37.8555L12.628 30.0895H9.34V27.7505Z" fill="black"/>
<path fill-rule="evenodd" clip-rule="evenodd" d="M9.66602 18.6719H12.498V19.7019H10.85V19.9079H12.498V22.2769H9.66602V21.1949H11.314V20.9889H9.66602V18.6719Z" fill="black"/>
<path fill-rule="evenodd" clip-rule="evenodd" d="M9.10064 18.6719V22.2769H6.18164V20.5329H7.38864V21.1949H7.89564V18.6719H9.10064Z" fill="#0E0E0F"/>
<path fill-rule="evenodd" clip-rule="evenodd" d="M32.9158 23.8535L32.5458 27.9985L29.7578 28.7715L31.0198 42.9205L38.6468 45.0385L46.2978 42.9175L47.9988 23.8535H32.9158ZM32.7948 27.7505H44.5088L44.0868 32.4835L44.0298 33.1125L43.4798 39.2685L43.4448 39.6635L38.6588 40.9905L38.6508 40.9935H38.6488L33.8578 39.6635L33.5298 35.9915H35.8778L36.0438 37.8575L38.6488 38.5605H38.6508L38.6588 38.5575L41.2588 37.8555L41.5308 34.8225H33.4248L33.2158 32.4835H41.7328L41.9468 30.0895H33.0078L32.7948 27.7505Z" fill="black"/>
<path fill-rule="evenodd" clip-rule="evenodd" d="M33.7168 18.6719H36.5488V19.8559H34.9008V21.0409H36.5488V22.2249H33.7168V18.6719Z" fill="black"/>
<path fill-rule="evenodd" clip-rule="evenodd" d="M37.1152 18.6719H39.9472V19.7019H38.2992V19.9079H39.9472V22.2769H37.1152V21.1949H38.7632V20.9889H37.1152V18.6719Z" fill="black"/>
<path fill-rule="evenodd" clip-rule="evenodd" d="M40.5137 18.6719H43.3457V19.7019H41.6977V19.9079H43.3457V22.2769H40.5137V21.1949H42.1617V20.9889H40.5137V18.6719Z" fill="black"/>
</svg>
